<?xml version="1.0" encoding="UTF-8" standalone="no"?>
<!-- Created with Inkscape (http://www.inkscape.org/) -->

<svg
   xmlns:dc="http://purl.org/dc/elements/1.1/"
   xmlns:cc="http://creativecommons.org/ns#"
   xmlns:rdf="http://www.w3.org/1999/02/22-rdf-syntax-ns#"
   xmlns:svg="http://www.w3.org/2000/svg"
   xmlns="http://www.w3.org/2000/svg"
   xmlns:sodipodi="http://sodipodi.sourceforge.net/DTD/sodipodi-0.dtd"
   xmlns:inkscape="http://www.inkscape.org/namespaces/inkscape"
   width="146.36343mm"
   height="20.227739mm"
   viewBox="0 0 146.36343 20.227739"
   version="1.1"
   id="svg8"
   inkscape:version="0.92.1 r15371"
   sodipodi:docname="lexicon_logo.svg">
  <defs
     id="defs2" />
  <sodipodi:namedview
     id="base"
     pagecolor="#ffffff"
     bordercolor="#666666"
     borderopacity="1.0"
     inkscape:pageopacity="0.0"
     inkscape:pageshadow="2"
     inkscape:zoom="0.7"
     inkscape:cx="-7.9860256"
     inkscape:cy="-130.29498"
     inkscape:document-units="mm"
     inkscape:current-layer="layer1"
     showgrid="false"
     fit-margin-top="0"
     fit-margin-left="0"
     fit-margin-right="0"
     fit-margin-bottom="0"
     inkscape:window-width="2560"
     inkscape:window-height="1377"
     inkscape:window-x="-8"
     inkscape:window-y="-8"
     inkscape:window-maximized="1" />
  <metadata
     id="metadata5">
    <rdf:RDF>
      <cc:Work
         rdf:about="">
        <dc:format>image/svg+xml</dc:format>
        <dc:type
           rdf:resource="http://purl.org/dc/dcmitype/StillImage" />
        <dc:title></dc:title>
      </cc:Work>
    </rdf:RDF>
  </metadata>
  <g
     inkscape:label="Ebene 1"
     inkscape:groupmode="layer"
     id="layer1"
     transform="translate(-5.4247878,-6.3435938)">
    <g
       aria-label="Lexicon Alpinum"
       transform="matrix(0.24733745,0,0,0.26458333,-30.740256,-28.726191)"
       style="font-style:normal;font-weight:normal;font-size:17.33333397px;line-height:1.25;font-family:sans-serif;letter-spacing:0px;word-spacing:0px;fill:#000000;fill-opacity:1;stroke:none"
       id="flowRoot4485">
      <path
         d="m 176.844,186.54671 -1.72706,5.58417 h -28.89952 v -58.20201 l 6.04472,-1.03623 v 53.65407 z"
         style="font-style:normal;font-variant:normal;font-weight:normal;font-stretch:normal;font-size:74.66666412px;font-family:Kabel;-inkscape-font-specification:Kabel"
         id="path4494"
         inkscape:connector-curvature="0" />
      <path
         d="m 220.97809,159.54697 -32.2385,19.80364 q 0.63325,1.20895 1.26651,2.41789 1.8422,2.7633 4.6055,4.49036 3.85711,2.41789 8.98073,2.41789 5.18118,0 11.39861,-3.91467 2.07247,-1.26652 5.18118,-3.91468 v 6.96582 q -2.7633,2.07248 -4.66306,3.05114 -5.87202,3.10872 -11.51375,3.10872 -9.38371,0 -15.88898,-6.21743 -6.73554,-6.4477 -6.73554,-16.17682 0,-8.34746 5.18119,-14.62246 5.46903,-6.56283 14.04677,-7.42637 0.80596,-0.11513 1.61193,-0.11513 0.86353,0 1.32408,0 5.75687,0 10.24723,2.59059 3.22385,1.8422 5.5266,4.89334 0.80597,1.32408 1.6695,2.64817 z m -7.59908,-1.32409 q -1.66949,-1.26651 -2.87844,-1.89976 -3.74196,-1.95734 -7.42636,-1.95734 -2.24518,0 -4.4328,0.63325 -2.18761,0.63326 -4.54793,2.18762 -4.20252,2.82087 -5.98715,7.5415 -1.20894,3.22385 -1.20894,7.08096 0,1.15137 0,1.66949 0.0576,0.46055 0.1727,0.86353 z"
         style="font-style:normal;font-variant:normal;font-weight:normal;font-stretch:normal;font-size:74.66666412px;font-family:Kabel;-inkscape-font-specification:Kabel"
         id="path4496"
         inkscape:connector-curvature="0" />
      <path
         d="m 266.57782,192.13088 -5.23875,2.64816 -14.85274,-20.32177 -14.68003,20.2642 -5.18119,-2.47546 16.46466,-21.81855 -14.79516,-19.05526 4.7782,-2.47545 13.35595,17.61603 13.52866,-17.38576 4.83577,2.24518 -14.85274,19.05526 z"
         style="font-style:normal;font-variant:normal;font-weight:normal;font-stretch:normal;font-size:74.66666412px;font-family:Kabel;-inkscape-font-specification:Kabel"
         id="path4498"
         inkscape:connector-curvature="0" />
      <path
         d="m 281.53962,137.44057 -3.8571,4.95091 -4.54794,-4.83578 4.20252,-4.83577 z m -1.26651,54.74788 -5.5266,1.43921 v -42.31302 l 5.5266,-1.03624 z"
         style="font-style:normal;font-variant:normal;font-weight:normal;font-stretch:normal;font-size:74.66666412px;font-family:Kabel;-inkscape-font-specification:Kabel"
         id="path4500"
         inkscape:connector-curvature="0" />
      <path
         d="m 326.36555,154.65362 -3.16628,4.20252 q -1.78463,-1.38165 -3.10871,-2.01491 -4.08738,-2.07247 -8.46261,-2.07247 -1.15137,0 -1.72706,0.0576 -6.73554,0.57569 -10.88049,5.64174 -3.91468,4.7782 -3.91468,11.62888 0,6.73555 4.4328,11.57132 4.66307,5.06605 11.57132,5.06605 3.97224,0 6.96581,-1.20894 3.05115,-1.26652 4.95092,-3.16628 l 2.99357,4.02981 q -2.13004,1.8422 -3.6844,2.7633 -4.83577,2.82087 -10.24724,2.82087 -9.55641,0 -16.06168,-6.39013 -6.4477,-6.4477 -6.4477,-15.77384 0,-9.15343 6.04472,-15.6587 6.10229,-6.56284 15.31329,-6.56284 5.5266,0 11.0532,2.53303 1.78463,0.80596 4.37522,2.53302 z"
         style="font-style:normal;font-variant:normal;font-weight:normal;font-stretch:normal;font-size:74.66666412px;font-family:Kabel;-inkscape-font-specification:Kabel"
         id="path4502"
         inkscape:connector-curvature="0" />
      <path
         d="m 379.28045,171.80911 q 0,8.92315 -6.4477,15.54356 -6.39013,6.56284 -15.48599,6.56284 -9.32614,0 -15.94654,-6.4477 -6.62041,-6.4477 -6.62041,-15.71627 0,-9.15343 6.39013,-15.71627 6.4477,-6.6204 15.25572,-6.6204 10.07453,0 16.46466,6.4477 6.39013,6.4477 6.39013,15.94654 z m -5.5266,-0.17271 q 0,-7.02338 -4.95091,-12.03187 -4.95091,-5.00848 -11.9743,-5.00848 -6.96582,0 -11.85916,5.06605 -4.83577,5.00848 -4.83577,12.08944 0,7.02339 4.89334,11.9743 4.95091,4.89334 11.9743,4.89334 6.96582,0 11.85916,-5.00848 4.89334,-5.00848 4.89334,-11.9743 z"
         style="font-style:normal;font-variant:normal;font-weight:normal;font-stretch:normal;font-size:74.66666412px;font-family:Kabel;-inkscape-font-specification:Kabel"
         id="path4504"
         inkscape:connector-curvature="0" />
      <path
         d="m 420.0326,192.13088 -5.5266,0.97867 V 164.0949 q 0,-3.56927 -2.47545,-6.4477 -2.99358,-3.5117 -8.17477,-3.5117 -6.6204,0 -9.78668,5.81445 -2.07248,3.79953 -2.07248,7.88692 v 24.29401 l -5.5266,0.97867 V 151.3722 l 5.23876,-0.9211 v 5.98715 q 2.13004,-3.16628 4.95091,-4.95091 3.56926,-2.24518 7.88692,-2.24518 6.15985,0 10.18967,3.16628 5.29632,4.14495 5.29632,12.95297 z"
         style="font-style:normal;font-variant:normal;font-weight:normal;font-stretch:normal;font-size:74.66666412px;font-family:Kabel;-inkscape-font-specification:Kabel"
         id="path4506"
         inkscape:connector-curvature="0" />
      <path
         d="m 506.59352,192.13088 -5.58417,1.72706 -11.57132,-23.9486 h -23.77589 l -11.62889,23.60319 -5.75688,-1.38165 29.59034,-59.58366 z m -19.45824,-27.4603 -9.49884,-19.68851 -9.49885,19.68851 z"
         style="font-style:normal;font-variant:normal;font-weight:normal;font-stretch:normal;font-size:74.66666412px;font-family:Kabel;-inkscape-font-specification:Kabel"
         id="path4508"
         inkscape:connector-curvature="0" />
      <path
         d="m 521.12837,192.13088 -5.41146,1.20894 v -59.41095 l 5.35389,-1.0938 z"
         style="font-style:normal;font-variant:normal;font-weight:normal;font-stretch:normal;font-size:74.66666412px;font-family:Kabel;-inkscape-font-specification:Kabel"
         id="path4510"
         inkscape:connector-curvature="0" />
      <path
         d="m 575.57592,171.80911 q 0,9.211 -6.4477,15.60113 -6.4477,6.39013 -15.94654,6.39013 -4.77821,0 -9.03829,-2.13004 -2.87844,-1.43922 -5.64174,-4.08738 -0.97867,-1.09381 -1.95734,-2.18762 v 21.87613 l -5.81444,1.72706 V 151.3722 l 5.46903,-1.0938 v 8.34747 q 1.32408,-1.95734 1.8422,-2.5906 2.41789,-2.87843 5.64174,-4.66307 4.49036,-2.53302 9.67155,-2.53302 9.211,0 15.71626,6.79311 6.50527,6.79311 6.50527,16.17682 z m -5.6993,0.11514 q 0,-7.25367 -4.31766,-12.43485 -4.49036,-5.3539 -11.2259,-5.3539 -6.79312,0 -12.31972,4.4328 -5.92958,4.72063 -5.92958,11.45618 0,7.65664 4.77821,13.0681 4.83577,5.3539 12.03187,5.3539 7.08095,0 11.91673,-4.49037 5.06605,-4.66306 5.06605,-12.03186 z"
         style="font-style:normal;font-variant:normal;font-weight:normal;font-stretch:normal;font-size:74.66666412px;font-family:Kabel;-inkscape-font-specification:Kabel"
         id="path4512"
         inkscape:connector-curvature="0" />
      <path
         d="m 592.89379,137.44057 -3.8571,4.95091 -4.54793,-4.83578 4.20251,-4.83577 z m -1.26651,54.74788 -5.5266,1.43921 v -42.31302 l 5.5266,-1.03624 z"
         style="font-style:normal;font-variant:normal;font-weight:normal;font-stretch:normal;font-size:74.66666412px;font-family:Kabel;-inkscape-font-specification:Kabel"
         id="path4514"
         inkscape:connector-curvature="0" />
      <path
         d="m 634.55343,192.13088 -5.5266,0.97867 V 164.0949 q 0,-3.56927 -2.47546,-6.4477 -2.99357,-3.5117 -8.17476,-3.5117 -6.6204,0 -9.78669,5.81445 -2.07247,3.79953 -2.07247,7.88692 v 24.29401 l -5.5266,0.97867 V 151.3722 l 5.23876,-0.9211 v 5.98715 q 2.13004,-3.16628 4.95091,-4.95091 3.56926,-2.24518 7.88692,-2.24518 6.15985,0 10.18966,3.16628 5.29633,4.14495 5.29633,12.95297 z"
         style="font-style:normal;font-variant:normal;font-weight:normal;font-stretch:normal;font-size:74.66666412px;font-family:Kabel;-inkscape-font-specification:Kabel"
         id="path4516"
         inkscape:connector-curvature="0" />
      <path
         d="m 674.78038,192.13088 -5.18119,0.97867 v -6.10229 q -1.61192,2.41789 -2.936,3.62683 -3.91468,3.56926 -9.211,3.56926 -0.63326,0.0576 -0.9211,0.0576 -5.3539,0 -9.49885,-3.28142 -5.46903,-4.31765 -5.46903,-12.49242 V 151.3722 l 5.58417,-0.97866 v 29.30249 q 0,3.56926 2.41789,6.21742 2.936,3.22385 8.23233,3.22385 5.12362,0 8.11719,-3.79954 3.39656,-4.31765 3.39656,-10.65021 V 151.3722 l 5.46903,-1.03623 z"
         style="font-style:normal;font-variant:normal;font-weight:normal;font-stretch:normal;font-size:74.66666412px;font-family:Kabel;-inkscape-font-specification:Kabel"
         id="path4518"
         inkscape:connector-curvature="0" />
      <path
         d="m 737.97345,192.13088 -5.5266,0.69082 v -29.18735 q 0,-3.74197 -1.8422,-6.21743 -2.47546,-3.28142 -7.59908,-3.28142 -6.73554,0 -9.09586,5.18119 -1.38165,2.99358 -1.38165,9.26857 v 23.54562 l -5.58417,1.20894 V 165.016 q 0,-4.4328 -1.20894,-6.73555 -2.13005,-3.97224 -7.94449,-3.97224 -4.95091,0 -7.65664,3.74197 -2.64816,3.6844 -2.64816,10.01696 v 24.06374 l -5.5266,1.0938 V 151.3722 l 5.46903,-0.9211 v 6.04472 q 1.26651,-2.59059 2.30275,-3.6844 3.28142,-3.56926 8.34747,-3.56926 4.95091,0 8.52017,2.24518 2.87844,1.78463 4.49036,5.06605 2.01491,-3.6844 5.46903,-5.58417 3.45413,-1.89977 7.3688,-1.89977 5.75688,0 9.61398,3.22385 4.4328,3.6844 4.4328,10.36238 z"
         style="font-style:normal;font-variant:normal;font-weight:normal;font-stretch:normal;font-size:74.66666412px;font-family:Kabel;-inkscape-font-specification:Kabel"
         id="path4520"
         inkscape:connector-curvature="0" />
    </g>
  </g>
</svg>
