<?xml version="1.0" encoding="UTF-8" standalone="no"?>
<!-- Created with Inkscape (http://www.inkscape.org/) -->

<svg
   width="93.886246mm"
   height="20.074335mm"
   viewBox="0 0 93.886243 20.074335"
   version="1.1"
   id="svg8"
   inkscape:version="1.1 (c68e22c387, 2021-05-23)"
   sodipodi:docname="timeline.svg"
   xmlns:inkscape="http://www.inkscape.org/namespaces/inkscape"
   xmlns:sodipodi="http://sodipodi.sourceforge.net/DTD/sodipodi-0.dtd"
   xmlns="http://www.w3.org/2000/svg"
   xmlns:svg="http://www.w3.org/2000/svg"
   xmlns:rdf="http://www.w3.org/1999/02/22-rdf-syntax-ns#"
   xmlns:cc="http://creativecommons.org/ns#"
   xmlns:dc="http://purl.org/dc/elements/1.1/">
  <defs
     id="defs2">
    <rect
       x="-64.285713"
       y="-82.85714"
       width="830"
       height="291.42856"
       id="rect7395" />
  </defs>
  <sodipodi:namedview
     id="base"
     pagecolor="#ffffff"
     bordercolor="#666666"
     borderopacity="1.0"
     inkscape:pageopacity="0.0"
     inkscape:pageshadow="2"
     inkscape:zoom="2.8"
     inkscape:cx="100.53571"
     inkscape:cy="13.035714"
     inkscape:document-units="mm"
     inkscape:current-layer="layer1"
     showgrid="false"
     fit-margin-top="0"
     fit-margin-left="0"
     fit-margin-right="0"
     fit-margin-bottom="0"
     inkscape:window-width="2560"
     inkscape:window-height="1377"
     inkscape:window-x="-8"
     inkscape:window-y="-8"
     inkscape:window-maximized="1"
     inkscape:pagecheckerboard="true" />
  <metadata
     id="metadata5">
    <rdf:RDF>
      <cc:Work
         rdf:about="">
        <dc:format>image/svg+xml</dc:format>
        <dc:type
           rdf:resource="http://purl.org/dc/dcmitype/StillImage" />
      </cc:Work>
    </rdf:RDF>
  </metadata>
  <g
     inkscape:label="Ebene 1"
     inkscape:groupmode="layer"
     id="layer1"
     transform="translate(-6.0932403,-6.42701)">
    <g
       aria-label="Timeline"
       transform="matrix(0.61175782,0,0,0.61175782,44.967383,52.115969)"
       id="text7393"
       style="font-size:40px;line-height:1.25;font-family:'Pure Heart';-inkscape-font-specification:'Pure Heart';white-space:pre;shape-inside:url(#rect7395)">
      <path
         d="m -42.573514,-71.045548 h -8.419429 v 28.188126 l -3.392445,0.493447 v -28.681573 h -9.159599 l 0.956053,-2.991519 h 20.01542 z"
         style="letter-spacing:-0.648745px;word-spacing:0px;fill:#ffffff;fill-opacity:1"
         id="path42975" />
      <path
         d="m -35.203766,-72.155803 -2.066307,2.652275 -2.436392,-2.590594 2.251349,-2.590594 z m -0.678489,29.329222 -2.960679,0.77101 v -22.667695 l 2.960679,-0.555127 z"
         style="letter-spacing:0px;fill:#ffffff;fill-opacity:1"
         id="path42977" />
      <path
         d="m -0.90926516,-42.857422 -2.96067844,0.370085 V -58.12342 q 0,-2.004626 -0.9868929,-3.330764 -1.3261372,-1.757902 -4.0709329,-1.757902 -3.6083266,0 -4.8727836,2.775636 -0.740169,1.6037 -0.740169,4.965304 v 12.613724 l -2.991519,0.647649 v -15.173478 q 0,-2.374711 -0.647649,-3.608327 -1.141095,-2.127987 -4.255975,-2.127987 -2.652274,0 -4.101773,2.004626 -1.418659,1.973785 -1.418659,5.36623 v 12.891287 l -2.960678,0.585968 v -22.420972 l 2.929838,-0.493446 v 3.238242 q 0.678489,-1.387818 1.233616,-1.973786 1.757903,-1.912105 4.471858,-1.912105 2.652274,0 4.564379,1.202776 1.54202,0.956053 2.405552,2.713955 1.079414,-1.973785 2.929838,-2.991519 1.850424,-1.017733 3.947571,-1.017733 3.0840401,0 5.150347,1.727063 2.37471084,1.973785 2.37471084,5.551272 z"
         style="font-family:Kabel;-inkscape-font-specification:Kabel;fill:#ffffff;fill-opacity:1"
         id="path42979" />
      <path
         d="M 23.824723,-60.313089 6.5540989,-49.703991 q 0.3392444,0.647649 0.6784888,1.295297 0.9868928,1.480339 2.4672321,2.405551 2.0663072,1.295297 4.8111022,1.295297 2.775636,0 6.1064,-2.097147 1.110254,-0.678489 2.775636,-2.097147 v 3.731688 q -1.480339,1.110254 -2.498073,1.634541 -3.145721,1.665382 -6.16808,1.665382 -5.0269852,0 -8.5119505,-3.330763 -3.6083269,-3.454125 -3.6083269,-8.666153 0,-4.471858 2.7756361,-7.833462 2.929838,-3.515806 7.5250573,-3.978412 0.431766,-0.06168 0.863532,-0.06168 0.462606,0 0.709329,0 3.08404,0 5.489591,1.387818 1.727063,0.986893 2.960679,2.621434 0.431765,0.709329 0.894371,1.418658 z m -4.070933,-0.709329 q -0.894371,-0.678489 -1.54202,-1.017733 -2.004626,-1.048574 -3.978411,-1.048574 -1.202776,0 -2.374711,0.339245 -1.171935,0.339244 -2.4363918,1.171935 -2.2513493,1.511179 -3.2074017,4.040092 -0.6476484,1.727063 -0.6476484,3.79337 0,0.616808 0,0.894371 0.03084,0.246723 0.092521,0.462606 z"
         style="font-family:Kabel;-inkscape-font-specification:Kabel;fill:#ffffff;fill-opacity:1"
         id="path42981" />
      <path
         d="m 32.460026,-42.857422 -2.898997,0.647649 v -31.827294 l 2.868157,-0.585968 z"
         style="letter-spacing:-0.484396px;fill:#ffffff;fill-opacity:1"
         id="path42983" />
      <path
         d="m 42.584695,-72.155803 -2.066307,2.652275 -2.436391,-2.590594 2.251349,-2.590594 z m -0.678488,29.329222 -2.960679,0.77101 v -22.667695 l 2.960679,-0.555127 z"
         style="font-family:Kabel;-inkscape-font-specification:Kabel;fill:#ffffff;fill-opacity:1"
         id="path42985" />
      <path
         d="m 64.913121,-42.857422 -2.960679,0.524287 v -15.543562 q 0,-1.912105 -1.326137,-3.454125 -1.603701,-1.881264 -4.379337,-1.881264 -3.546646,0 -5.242868,3.11488 -1.110254,2.035466 -1.110254,4.225135 v 13.014649 l -2.960679,0.524287 v -22.359291 l 2.806477,-0.493446 v 3.207402 q 1.141095,-1.696222 2.652274,-2.652275 1.912105,-1.202776 4.225135,-1.202776 3.299923,0 5.458751,1.696222 2.837317,2.220509 2.837317,6.939091 z"
         style="font-family:Kabel;-inkscape-font-specification:Kabel;fill:#ffffff;fill-opacity:1"
         id="path42987" />
      <path
         d="m 89.924638,-60.313089 -17.270625,10.609098 q 0.339245,0.647649 0.678489,1.295297 0.986893,1.480339 2.467232,2.405551 2.066307,1.295297 4.811103,1.295297 2.775636,0 6.106399,-2.097147 1.110255,-0.678489 2.775636,-2.097147 v 3.731688 q -1.480339,1.110254 -2.498072,1.634541 -3.145721,1.665382 -6.16808,1.665382 -5.026986,0 -8.511951,-3.330763 -3.608327,-3.454125 -3.608327,-8.666153 0,-4.471858 2.775636,-7.833462 2.929838,-3.515806 7.525058,-3.978412 0.431766,-0.06168 0.863531,-0.06168 0.462606,0 0.709329,0 3.084041,0 5.489592,1.387818 1.727062,0.986893 2.960678,2.621434 0.431766,0.709329 0.894372,1.418658 z m -4.070933,-0.709329 q -0.894372,-0.678489 -1.54202,-1.017733 -2.004626,-1.048574 -3.978412,-1.048574 -1.202775,0 -2.374711,0.339245 -1.171935,0.339244 -2.436391,1.171935 -2.25135,1.511179 -3.207402,4.040092 -0.647648,1.727063 -0.647648,3.79337 0,0.616808 0,0.894371 0.03084,0.246723 0.09252,0.462606 z"
         style="font-family:Kabel;-inkscape-font-specification:Kabel;fill:#ffffff;fill-opacity:1"
         id="path42989" />
    </g>
  </g>
</svg>
